<svg width="19" height="15" viewBox="0 0 19 15" fill="none" xmlns="http://www.w3.org/2000/svg">
<path d="M16.5 0.5H2.5C1.5375 0.5 0.75875 1.2875 0.75875 2.25L0.75 12.75C0.75 13.7125 1.5375 14.5 2.5 14.5H16.5C17.4625 14.5 18.25 13.7125 18.25 12.75V2.25C18.25 1.2875 17.4625 0.5 16.5 0.5ZM16.15 4.21875L9.96375 8.08625C9.68375 8.26125 9.31625 8.26125 9.03625 8.08625L2.85 4.21875C2.76226 4.1695 2.68543 4.10295 2.62415 4.02315C2.56288 3.94334 2.51843 3.85193 2.4935 3.75445C2.46858 3.65697 2.46369 3.55544 2.47914 3.45602C2.49458 3.35659 2.53004 3.26134 2.58337 3.17601C2.6367 3.09069 2.70678 3.01707 2.78939 2.95962C2.87199 2.90217 2.96539 2.86207 3.06393 2.84176C3.16248 2.82145 3.26412 2.82135 3.36271 2.84145C3.4613 2.86156 3.55478 2.90147 3.6375 2.95875L9.5 6.625L15.3625 2.95875C15.4452 2.90147 15.5387 2.86156 15.6373 2.84145C15.7359 2.82135 15.8375 2.82145 15.9361 2.84176C16.0346 2.86207 16.128 2.90217 16.2106 2.95962C16.2932 3.01707 16.3633 3.09069 16.4166 3.17601C16.47 3.26134 16.5054 3.35659 16.5209 3.45602C16.5363 3.55544 16.5314 3.65697 16.5065 3.75445C16.4816 3.85193 16.4371 3.94334 16.3758 4.02315C16.3146 4.10295 16.2377 4.1695 16.15 4.21875Z" fill="#CEA66B"/>
</svg>
