<svg width="20" height="21" viewBox="0 0 20 21" fill="none" xmlns="http://www.w3.org/2000/svg">
<g clip-path="url(#clip0_180_660)">
<path fill-rule="evenodd" clip-rule="evenodd" d="M13.7933 18.9442C12.5933 18.9001 9.19242 18.4301 5.63075 14.8692C2.06992 11.3076 1.60075 7.90756 1.55575 6.70672C1.48909 4.87672 2.89075 3.09922 4.50992 2.40506C4.7049 2.32086 4.91842 2.28881 5.12953 2.31204C5.34064 2.33527 5.54208 2.41298 5.71409 2.53756C7.04742 3.50922 7.96742 4.97922 8.75742 6.13506C8.93124 6.389 9.00556 6.69801 8.96622 7.00322C8.92687 7.30843 8.77662 7.5885 8.54409 7.79006L6.91825 8.99756C6.8397 9.05428 6.78441 9.13758 6.76265 9.23199C6.74089 9.3264 6.75413 9.42551 6.79992 9.51089C7.16825 10.1801 7.82325 11.1767 8.57325 11.9267C9.32409 12.6767 10.3674 13.3751 11.0833 13.7851C11.173 13.8354 11.2786 13.8495 11.3785 13.8244C11.4783 13.7993 11.5647 13.7369 11.6199 13.6501L12.6783 12.0392C12.8728 11.7808 13.1599 11.6076 13.4792 11.556C13.7986 11.5045 14.1256 11.5785 14.3916 11.7626C15.5641 12.5742 16.9324 13.4784 17.9341 14.7609C18.0688 14.9341 18.1545 15.1404 18.1822 15.3581C18.2099 15.5758 18.1786 15.7969 18.0916 15.9984C17.3941 17.6259 15.6291 19.0117 13.7933 18.9442Z" fill="#CEA66B"/>
</g>
<defs>
<clipPath id="clip0_180_660">
<rect width="20" height="20" fill="white" transform="translate(0 0.5)"/>
</clipPath>
</defs>
</svg>
